<svg width="16" height="16" viewBox="0 0 16 16" fill="none" xmlns="http://www.w3.org/2000/svg">
<path id="Vector" d="M7.78186 0.352829C8.77642 0.352829 9.73025 0.747917 10.4335 1.45118C11.1368 2.15444 11.5319 3.10827 11.5319 4.10283C11.5319 5.09739 11.1368 6.05122 10.4335 6.75448C9.73025 7.45774 8.77642 7.85283 7.78186 7.85283C6.7873 7.85283 5.83347 7.45774 5.13021 6.75448C4.42695 6.05122 4.03186 5.09739 4.03186 4.10283C4.03186 3.10827 4.42695 2.15444 5.13021 1.45118C5.83347 0.747917 6.7873 0.352829 7.78186 0.352829ZM7.78186 9.72783C11.9256 9.72783 15.2819 11.406 15.2819 13.4778V15.3528H0.28186V13.4778C0.28186 11.406 3.63811 9.72783 7.78186 9.72783Z" fill="white"/>
</svg>
