<svg xmlns="http://www.w3.org/2000/svg" width="16" height="16" viewBox="9 10 16 16" fill="none">
<path d="M15.8382 14.1831C15.7376 14.1866 15.6372 14.1699 15.5432 14.1338C15.4491 14.0977 15.3633 14.0431 15.2909 13.9732C15.2184 13.9032 15.1608 13.8194 15.1214 13.7267C15.082 13.634 15.0618 13.5343 15.0618 13.4335C15.0618 13.3328 15.082 13.2331 15.1214 13.1404C15.1608 13.0477 15.2184 12.9639 15.2909 12.8939C15.3633 12.824 15.4491 12.7694 15.5432 12.7333C15.6372 12.6972 15.7376 12.6805 15.8382 12.684L21.4951 12.684C21.6938 12.6841 21.8844 12.7631 22.0249 12.9037C22.1655 13.0442 22.2445 13.2348 22.2446 13.4335L22.2446 19.0904C22.2482 19.1911 22.2314 19.2914 22.1953 19.3854C22.1593 19.4795 22.1046 19.5653 22.0347 19.6378C21.9647 19.7102 21.8809 19.7678 21.7882 19.8072C21.6955 19.8466 21.5958 19.8669 21.4951 19.8669C21.3944 19.8669 21.2947 19.8466 21.202 19.8072C21.1092 19.7678 21.0254 19.7102 20.9555 19.6378C20.8855 19.5653 20.8309 19.4795 20.7948 19.3854C20.7587 19.2914 20.742 19.1911 20.7455 19.0904L20.7455 15.2437L13.8937 22.0956C13.753 22.2363 13.5623 22.3153 13.3633 22.3153C13.1644 22.3153 12.9737 22.2363 12.833 22.0956C12.6924 21.955 12.6133 21.7642 12.6133 21.5653C12.6133 21.3664 12.6924 21.1756 12.833 21.0349L19.6849 14.1831L15.8382 14.1831Z" fill="white" fill-opacity="0.45"/>
</svg>