<svg xmlns="http://www.w3.org/2000/svg" width="16" height="16" viewBox="0 0 16 16" fill="none">
  <g clip-path="url(#clip0_10_171)">
    <path fill-rule="evenodd" clip-rule="evenodd" d="M2.53186 13.9706C1.93512 13.9706 1.36283 13.7335 0.94087 13.3116C0.518913 12.8896 0.28186 12.3173 0.28186 11.7206V4.22058C0.28186 3.62384 0.518913 3.05155 0.94087 2.62959C1.36283 2.20763 1.93512 1.97058 2.53186 1.97058H13.0319C13.6286 1.97058 14.2009 2.20763 14.6229 2.62959C15.0448 3.05155 15.2819 3.62384 15.2819 4.22058V11.7206C15.2819 12.3173 15.0448 12.8896 14.6229 13.3116C14.2009 13.7335 13.6286 13.9706 13.0319 13.9706H2.53186ZM4.50061 5.13558C4.42421 5.07034 4.33548 5.02112 4.2397 4.99083C4.14391 4.96055 4.04301 4.94981 3.94299 4.95927C3.84298 4.96872 3.74588 4.99818 3.65746 5.04588C3.56905 5.09358 3.49112 5.15856 3.4283 5.23696C3.36548 5.31536 3.31905 5.40558 3.29177 5.50227C3.26449 5.59895 3.25691 5.70014 3.26948 5.79981C3.28206 5.89948 3.31453 5.99561 3.36497 6.08249C3.41541 6.16938 3.48279 6.24524 3.56311 6.30558L6.37561 8.55633C6.77468 8.87584 7.27065 9.04993 7.78186 9.04993C8.29307 9.04993 8.78905 8.87584 9.18811 8.55633L12.0006 6.30633C12.0775 6.24477 12.1416 6.16867 12.1891 6.08236C12.2366 5.99605 12.2666 5.90123 12.2775 5.80331C12.2884 5.70539 12.2798 5.60629 12.2524 5.51167C12.225 5.41705 12.1792 5.32875 12.1176 5.25183C12.0561 5.17491 11.9799 5.11087 11.8936 5.06336C11.8073 5.01585 11.7125 4.9858 11.6146 4.97494C11.5167 4.96407 11.4176 4.9726 11.3229 5.00004C11.2283 5.02747 11.14 5.07327 11.0631 5.13483L8.25061 7.38483C8.11759 7.49133 7.95226 7.54936 7.78186 7.54936C7.61146 7.54936 7.44613 7.49133 7.31311 7.38483L4.50061 5.13483V5.13558Z" fill="white"/>
  </g>
  <defs>
    <clipPath id="clip0_10_171">
      <rect width="15" height="15" fill="white" transform="translate(0.28186 0.470581)"/>
    </clipPath>
  </defs>
</svg>