<svg width="16" height="15" viewBox="0 0 16 15" fill="none" xmlns="http://www.w3.org/2000/svg">
<g id="mingcute:github-fill" clip-path="url(#clip0_10_165)">
<path id="Vector" d="M4.42827 0.246675C4.99094 0.43728 5.52621 0.700762 6.02044 1.0304C6.71844 0.852007 7.43615 0.762387 8.15657 0.763662C8.90059 0.763662 9.61837 0.85657 10.2912 1.02965C10.7852 0.700332 11.3203 0.437105 11.8826 0.246675C12.4049 0.0691011 13.1489 -0.218613 13.5909 0.270651C13.8906 0.603321 13.9656 1.16077 14.0188 1.58635C14.0787 2.06138 14.0929 2.68026 13.9356 3.29465C14.5372 4.07163 14.8999 4.99846 14.8999 6.00846C14.8999 7.53844 14.0712 8.86688 12.8447 9.78696C12.2544 10.2242 11.5997 10.5669 10.9041 10.803C11.0644 11.1701 11.1536 11.5762 11.1536 12.0025V14.2503C11.1536 14.449 11.0747 14.6396 10.9341 14.7801C10.7936 14.9206 10.6031 14.9995 10.4043 14.9995H5.9088C5.71009 14.9995 5.51951 14.9206 5.379 14.7801C5.23849 14.6396 5.15955 14.449 5.15955 14.2503V13.5078C4.44401 13.5954 3.84385 13.5175 3.33361 13.301C2.80014 13.0747 2.42851 12.724 2.14903 12.3884C1.8838 12.0707 1.59458 11.3544 1.1765 11.215C1.08312 11.184 0.996784 11.1348 0.922415 11.0703C0.848045 11.0059 0.7871 10.9274 0.743059 10.8394C0.654115 10.6616 0.639424 10.4558 0.702218 10.2672C0.765012 10.0787 0.900147 9.92274 1.0779 9.8338C1.25564 9.74485 1.46145 9.73016 1.65003 9.79296C2.14903 9.95929 2.47421 10.3189 2.69674 10.6081C3.05638 11.0727 3.34859 11.6796 3.91803 11.9216C4.15255 12.0212 4.49645 12.0864 5.03442 12.013L5.15955 11.9875C5.16098 11.5798 5.24589 11.1766 5.40905 10.803C4.71343 10.5669 4.05875 10.2242 3.46847 9.78696C2.24194 8.86688 1.41326 7.53919 1.41326 6.00846C1.41326 4.99996 1.77515 4.07388 2.37531 3.29765C2.21796 2.68326 2.23145 2.06287 2.29139 1.5871L2.29514 1.55862C2.34983 1.12256 2.41352 0.609315 2.71922 0.270651C3.16128 -0.218613 3.90604 0.0698505 4.42752 0.247424L4.42827 0.246675Z" fill="white"/>
</g>
<defs>
<clipPath id="clip0_10_165">
<rect width="15" height="15" fill="white" transform="translate(0.28186 -0.000457764)"/>
</clipPath>
</defs>
</svg>
