<svg width="16" height="16" viewBox="0 0 16 16" fill="none" xmlns="http://www.w3.org/2000/svg">
<g id="teenyicons:home-solid" clip-path="url(#clip0_10_146)">
<path id="Vector" d="M8.10686 0.590599C8.01629 0.513134 7.90104 0.470566 7.78186 0.470566C7.66268 0.470566 7.54743 0.513134 7.45686 0.590599L0.28186 6.7406V13.9706C0.28186 14.3684 0.439896 14.75 0.7212 15.0313C1.0025 15.3126 1.38404 15.4706 1.78186 15.4706H5.78186C5.91447 15.4706 6.04165 15.4179 6.13541 15.3242C6.22918 15.2304 6.28186 15.1032 6.28186 14.9706V11.9706C6.28186 11.5728 6.4399 11.1912 6.7212 10.9099C7.0025 10.6286 7.38404 10.4706 7.78186 10.4706C8.17969 10.4706 8.56122 10.6286 8.84252 10.9099C9.12383 11.1912 9.28186 11.5728 9.28186 11.9706V14.9706C9.28186 15.1032 9.33454 15.2304 9.42831 15.3242C9.52207 15.4179 9.64925 15.4706 9.78186 15.4706H13.7819C14.1797 15.4706 14.5612 15.3126 14.8425 15.0313C15.1238 14.75 15.2819 14.3684 15.2819 13.9706V6.7406L8.10686 0.590599Z" fill="white"/>
</g>
<defs>
<clipPath id="clip0_10_146">
<rect width="15" height="15" fill="white" transform="translate(0.28186 0.470566)"/>
</clipPath>
</defs>
</svg>
