<svg width="16" height="16" viewBox="0 0 16 16" fill="none" xmlns="http://www.w3.org/2000/svg">
<g id="ri:linkedin-fill" clip-path="url(#clip0_10_169)">
<path id="Vector" d="M3.42981 2.93219C3.42961 3.34963 3.26358 3.7499 2.96825 4.04493C2.67293 4.33996 2.2725 4.50558 1.85505 4.50538C1.43761 4.50517 1.03734 4.33914 0.742311 4.04381C0.447281 3.74849 0.281652 3.34806 0.281861 2.93061C0.282069 2.51317 0.448099 2.1129 0.743424 1.81787C1.03875 1.52284 1.43918 1.35721 1.85662 1.35742C2.27407 1.35763 2.67433 1.52366 2.96936 1.81899C3.26439 2.11431 3.43002 2.51474 3.42981 2.93219ZM3.47703 5.67091H0.32908V15.524H3.47703V5.67091ZM8.4508 5.67091H5.31859V15.524H8.41932V10.3535C8.41932 7.47311 12.1733 7.20553 12.1733 10.3535V15.524H15.2819V9.28318C15.2819 4.42746 9.72572 4.60847 8.41932 6.99305L8.4508 5.67091Z" fill="white"/>
</g>
<defs>
<clipPath id="clip0_10_169">
<rect width="15" height="15" fill="white" transform="translate(0.28186 0.940704)"/>
</clipPath>
</defs>
</svg>
