<svg width="16" height="16" viewBox="0 0 16 16" fill="none" xmlns="http://www.w3.org/2000/svg">
<g id="streamline:song-recommendation-solid" clip-path="url(#clip0_10_159)">
<path id="Vector" fill-rule="evenodd" clip-rule="evenodd" d="M5.9509 0.283476C5.84902 0.284942 5.74897 0.310778 5.65912 0.358824C5.56927 0.40687 5.49223 0.475729 5.43444 0.559643C5.3766 0.643418 5.33085 0.734922 5.29853 0.831461C5.25178 0.961933 5.21155 1.13046 5.17567 1.27942L5.16154 1.33269C5.0702 1.70889 4.98105 2.01441 4.85384 2.18729C4.77371 2.27835 4.67752 2.35391 4.57006 2.41018C4.40391 2.50429 4.23216 2.58817 4.05578 2.66134L3.91878 2.72005C3.78855 2.77411 3.65984 2.83175 3.5328 2.89293C3.45887 2.92881 3.36428 2.97991 3.28273 3.04515C3.203 3.1048 3.13788 3.18181 3.09229 3.27034C3.04671 3.35887 3.02185 3.45661 3.01961 3.55616C3.01961 3.85408 3.23054 4.02369 3.28164 4.06501C3.36428 4.13024 3.45887 4.18134 3.53172 4.21831C3.64153 4.27268 3.78396 4.33356 3.91878 4.39119L4.05578 4.4499C4.24279 4.53036 4.41893 4.6119 4.57006 4.69997C4.67722 4.75668 4.77304 4.8326 4.85275 4.92395C4.98105 5.09683 5.0702 5.40235 5.16154 5.77855L5.17567 5.83291C5.21155 5.97969 5.25178 6.14822 5.29853 6.27869C5.33085 6.37523 5.3766 6.46674 5.43444 6.55051C5.49968 6.64184 5.66603 6.82668 5.9509 6.82668C6.23685 6.82668 6.4032 6.64184 6.46844 6.5516C6.52628 6.46782 6.57203 6.37632 6.60435 6.27978C6.6511 6.14822 6.69133 5.97969 6.72721 5.83182L6.74025 5.77746C6.83267 5.40235 6.92183 5.09683 7.04904 4.92395C7.12917 4.83289 7.22536 4.75733 7.33282 4.70106C7.49861 4.60698 7.67 4.5231 7.84601 4.4499L7.98409 4.39119C8.11891 4.33356 8.26135 4.27268 8.37007 4.21831C8.44401 4.18134 8.5386 4.13133 8.62015 4.06609C8.69988 4.00644 8.765 3.92943 8.81058 3.8409C8.85617 3.75237 8.88102 3.65463 8.88327 3.55508C8.88082 3.45598 8.85598 3.35873 8.8106 3.27061C8.76522 3.18248 8.70048 3.10577 8.62123 3.04623C8.543 2.98664 8.45884 2.93526 8.37007 2.89293C8.26135 2.83856 8.11891 2.77768 7.98409 2.72005L7.84601 2.66134C7.67002 2.58849 7.49864 2.50498 7.33282 2.41127C7.22566 2.35456 7.12984 2.27864 7.05013 2.18729C6.92183 2.01441 6.83267 1.70889 6.74025 1.33269L6.72721 1.27833C6.69324 1.1279 6.65224 0.979141 6.60435 0.832548C6.57212 0.735631 6.52637 0.643755 6.46844 0.559643C6.41042 0.475781 6.33315 0.407041 6.24311 0.359181C6.15306 0.311321 6.05286 0.285734 5.9509 0.284563V0.283476ZM6.40537 8.1314C6.74953 8.04671 7.06319 7.86758 7.311 7.61419C7.55882 7.36081 7.73093 7.04324 7.80795 6.69729L7.81339 6.67772C7.84844 6.52878 7.89016 6.38149 7.93843 6.23629C7.98823 6.0817 8.04742 5.93028 8.11565 5.7829L8.13087 5.77202C8.21894 5.71222 8.34181 5.64155 8.48641 5.5687C8.64692 5.48831 8.8109 5.41503 8.97786 5.34907L9.00178 5.3382C9.44305 5.17443 9.80796 4.8529 10.026 4.43577L13.7412 3.40503L13.7466 3.40395C13.925 3.35572 14.112 3.34874 14.2935 3.38351C14.475 3.41828 14.6462 3.4939 14.7942 3.60464C14.9421 3.71538 15.0629 3.85834 15.1474 4.02268C15.2319 4.18702 15.2779 4.36844 15.2819 4.55319V10.8887C15.2699 11.3633 15.1096 11.8221 14.8235 12.2009C14.5374 12.5797 14.1398 12.8594 13.6867 13.0007C13.2335 13.142 12.7475 13.1378 12.2968 12.9888C11.8461 12.8398 11.4534 12.5534 11.1738 12.1698C10.8942 11.7862 10.7418 11.3246 10.7379 10.85C10.734 10.3753 10.8788 9.91133 11.1521 9.52318C11.4253 9.13504 11.8133 8.84221 12.2614 8.6858C12.7096 8.5294 13.1955 8.51727 13.651 8.65112V7.07457L8.03519 8.63372V12.9143C8.03519 13.3915 7.88498 13.8565 7.60586 14.2436C7.32674 14.6306 6.93287 14.9199 6.4801 15.0705C6.02733 15.2211 5.53863 15.2254 5.08329 15.0827C4.62796 14.94 4.22909 14.6576 3.94325 14.2756C3.6574 13.8935 3.49909 13.4311 3.49075 12.954C3.48241 12.4769 3.62446 12.0093 3.89677 11.6175C4.16909 11.2256 4.55784 10.9295 5.00791 10.771C5.45798 10.6124 5.94653 10.5996 6.40429 10.7343L6.40537 8.1314ZM2.33028 6.49071C2.54655 6.49071 2.75397 6.57662 2.90689 6.72955C3.05982 6.88248 3.14573 7.08989 3.14573 7.30616V7.72368H3.56325C3.77952 7.72368 3.98693 7.80959 4.13986 7.96252C4.29279 8.11544 4.3787 8.32286 4.3787 8.53913C4.3787 8.7554 4.29279 8.96282 4.13986 9.11574C3.98693 9.26867 3.77952 9.35458 3.56325 9.35458H3.14573V9.7721C3.14573 9.98837 3.05982 10.1958 2.90689 10.3487C2.75397 10.5016 2.54655 10.5876 2.33028 10.5876C2.11401 10.5876 1.90659 10.5016 1.75367 10.3487C1.60074 10.1958 1.51483 9.98837 1.51483 9.7721V9.35458H1.09731C0.881042 9.35458 0.673628 9.26867 0.520701 9.11574C0.367774 8.96282 0.28186 8.7554 0.28186 8.53913C0.28186 8.32286 0.367774 8.11544 0.520701 7.96252C0.673628 7.80959 0.881042 7.72368 1.09731 7.72368H1.51483V7.30725C1.51483 7.09098 1.60074 6.88357 1.75367 6.73064C1.90659 6.57771 2.11401 6.49071 2.33028 6.49071Z" fill="white"/>
</g>
<defs>
<clipPath id="clip0_10_159">
<rect width="15" height="15" fill="white" transform="translate(0.28186 0.235088)"/>
</clipPath>
</defs>
</svg>
