<svg width="16" height="16" viewBox="0 0 16 16" fill="none" xmlns="http://www.w3.org/2000/svg">
<g id="solar:programming-bold" clip-path="url(#clip0_37_1054)">
<path id="Vector" fill-rule="evenodd" clip-rule="evenodd" d="M1.37986 1.39196C0.28186 2.49146 0.28186 4.25846 0.28186 7.79396C0.28186 11.3295 0.28186 13.0972 1.37986 14.1952C2.47936 15.294 4.24636 15.294 7.78186 15.294C11.3174 15.294 13.0851 15.294 14.1831 14.1952C15.2819 13.098 15.2819 11.3295 15.2819 7.79396C15.2819 4.25846 15.2819 2.49071 14.1831 1.39196C13.0859 0.293957 11.3174 0.293957 7.78186 0.293957C4.24636 0.293957 2.47861 0.293957 1.37986 1.39196ZM3.59986 5.93396C3.69536 5.81942 3.83244 5.7475 3.98095 5.734C4.12947 5.72049 4.27727 5.76652 4.39186 5.86196L4.59961 6.03446C5.05336 6.41246 5.43961 6.73421 5.70661 7.03046C5.99086 7.34546 6.21211 7.70621 6.21211 8.16896C6.21211 8.63171 5.99086 8.99321 5.70661 9.30746C5.43961 9.60371 5.05336 9.92546 4.59961 10.3035L4.39186 10.476C4.33541 10.5253 4.26965 10.5629 4.19845 10.5865C4.12726 10.6101 4.05206 10.6193 3.97729 10.6134C3.90252 10.6075 3.82968 10.5867 3.76306 10.5522C3.69644 10.5178 3.63738 10.4703 3.58937 10.4127C3.54135 10.3551 3.50534 10.2884 3.48346 10.2167C3.46158 10.145 3.45426 10.0696 3.46195 9.99495C3.46964 9.92034 3.49217 9.84803 3.52822 9.78225C3.56427 9.71648 3.6131 9.65858 3.67186 9.61196L3.84736 9.46571C4.34161 9.05321 4.66486 8.78321 4.87186 8.55371C5.06836 8.33621 5.08711 8.23346 5.08711 8.16896C5.08711 8.10446 5.06836 8.00246 4.87186 7.78421C4.66411 7.55471 4.34161 7.28396 3.84736 6.87221L3.67186 6.72596C3.55732 6.63045 3.4854 6.49338 3.4719 6.34486C3.4584 6.19635 3.50442 6.04855 3.59986 5.93396ZM12.0944 10.044C12.0944 10.1931 12.0351 10.3362 11.9296 10.4417C11.8241 10.5472 11.681 10.6065 11.5319 10.6065H7.78186C7.63268 10.6065 7.4896 10.5472 7.38411 10.4417C7.27862 10.3362 7.21936 10.1931 7.21936 10.044C7.21936 9.89477 7.27862 9.7517 7.38411 9.64621C7.4896 9.54072 7.63268 9.48146 7.78186 9.48146H11.5319C11.681 9.48146 11.8241 9.54072 11.9296 9.64621C12.0351 9.7517 12.0944 9.89477 12.0944 10.044Z" fill="white"/>
</g>
<defs>
<clipPath id="clip0_37_1054">
<rect width="15" height="15" fill="white" transform="translate(0.28186 0.293957)"/>
</clipPath>
</defs>
</svg>
