<svg xmlns="http://www.w3.org/2000/svg" viewBox="0 0 995 392.01"><defs><style>.cls-1{fill:none;stroke:#120d61;stroke-width:5px;}</style></defs><title>Asset 1</title><g id="Layer_2" data-name="Layer 2"><g id="Layer_1-2" data-name="Layer 1"><path class="cls-1" d="M990.38,360.65a42.14,42.14,0,0,1-14.54-2.52,45,45,0,0,1-13.36-7.94,89.41,89.41,0,0,1-13-13.77,189.8,189.8,0,0,1-13.35-20L871.64,205.26a157.88,157.88,0,0,0,27-14.16,106.89,106.89,0,0,0,23.67-21,100.23,100.23,0,0,0,16.8-29.12q6.34-16.68,6.34-38.12,0-49-35.83-74.64T797.05,2.5H457.38V40.92h4.93q24.29,0,36.09,8.46t11.79,26.78a97.19,97.19,0,0,1-1.94,16.57,173.41,173.41,0,0,1-4.75,19.74L471.81,217.86q-4.21,13.39-7,23.79t-5.1,19.21q-2.3,8.81-3.88,16.91T452.45,295h-2.11q-2.47-13.38-6.34-31.54a413.25,413.25,0,0,0-12.67-44.23L360.91,6.38H314.09L240.51,211.86q-9.16,26.79-14.61,46a372.57,372.57,0,0,0-8.63,37.19h-2.12q-1.41-9.18-3.69-20.8t-5.11-24.67q-2.82-13.05-6-26.79T193.68,196l-26.76-93.75q-2.11-8.11-4-16.57a67.09,67.09,0,0,1-1.94-14.45q0-18,10.74-24.14t32.57-6.17h9.5V2.5H2.5V40.92H4.61a83.41,83.41,0,0,1,18.31,1.76,38.24,38.24,0,0,1,13.73,6A39.25,39.25,0,0,1,47.21,60.3,92.9,92.9,0,0,1,55.66,79l92.6,310.52h78.51l82.74-239.67L388.37,389.5h77.81L559.13,97.31A236,236,0,0,1,570,68.58q5.28-11.1,11.27-17.26A29.86,29.86,0,0,1,595,43a69.73,69.73,0,0,1,18.31-2.11h9.15v1.74l.41-1.75h23.15a46.63,46.63,0,0,1,10.61.76,20,20,0,0,1,8.86,4.63,23.2,23.2,0,0,1,6.08,9.93q2.25,6.48,2.25,17.33L673,328.35q0,10.59-2.25,17.08a22.24,22.24,0,0,1-6.09,9.79,19.51,19.51,0,0,1-8.86,4.37,51.46,51.46,0,0,1-10.58,1.06H622.5V389.5h187V360.65H786.21a51.53,51.53,0,0,1-10.58-1.06,19.51,19.51,0,0,1-8.86-4.37q-3.84-3.3-6.08-9.79t-2.25-17.08V221.41h36l64.27,119.38q8.46,15.09,18.38,24.62a72.21,72.21,0,0,0,23.53,15,119,119,0,0,0,31.74,7.28q21.17,2,42.45,1.85H992.5V360.65ZM851.14,145q-3.32,15-10.85,24.89a46.07,46.07,0,0,1-20.09,14.95q-12.57,5-31.35,5H758.44V34.53H787.8q18,0,30.68,4.1A45,45,0,0,1,839.1,51.86q7.95,9.15,11.64,23.43t3.7,34.95A162.07,162.07,0,0,1,851.14,145Z"/></g></g></svg>